# xmcd
#
# Track frame offsets:
#	183
#	32270
#	47033
#	68683
#	88558
#	113568
#	139655
#	163010
#	177990
#	199585
#
# Disc length: 2997 seconds
#
# Revision: 0
# Processed by: cddbd v1.5.2PL0 Copyright (c) Steve Scherf et al.
# Submitted via: EasyCDDAExtractor 16.0.9.1
#
DISCID=780bb30a
DTITLE=Tuấn Ngọc - KH17: Phôi Pha
DYEAR=1997
DGENRE=Pop
TTITLE0=Tuấn Ngọc - Cỏ Hồng
TTITLE1=Tuấn Ngọc - Phôi Pha
TTITLE2=Tuấn Ngọc - Yêu
TTITLE3=Tuấn Ngọc and Thái Thảo - Đừng Xa Nhau
TTITLE4=Tuấn Ngọc - Gửi Gió Cho Mây Ngàn Bay
TTITLE5=Tuấn Ngọc - Vết Thù Trên Lưng Ngựa Hoang
TTITLE6=Tuấn Ngọc - Tiễn Em
TTITLE7=Tuấn Ngọc - Lá Thu
TTITLE8=Tuấn Ngọc - Về Đây Nghe Em
TTITLE9=Tuấn Ngọc - Gọi Người Yêu Dấu
EXTD=
EXTT0=
EXTT1=
EXTT2=
EXTT3=
EXTT4=
EXTT5=
EXTT6=
EXTT7=
EXTT8=
EXTT9=
PLAYORDER=
